<?xml version="1.0" encoding="utf-8"?>
<svg xmlns="http://www.w3.org/2000/svg" xmlns:xlink="http://www.w3.org/1999/xlink" width="365.25" height="274" viewBox="0 0 1461 1096">
<defs>
  <clipPath id="clip570">
    <rect x="182" y="82" width="1170" height="878"/>
  </clipPath>
</defs>
<defs>
  <clipPath id="clip571">
    <rect x="0" y="0" width="1461" height="1096"/>
  </clipPath>
</defs>
<path clip-path="url(#clip571)" d="
M182.625 959 L1351.42 959 L1351.42 82.2 L182.625 82.2  Z
  " fill="#ffffff" fill-rule="evenodd" fill-opacity="1"/>
<polyline clip-path="url(#clip571)" style="stroke:#cccccc; stroke-linecap:butt; stroke-linejoin:round; stroke-width:2.192; stroke-opacity:1; fill:none" points="
  182.625,959 1351.43,959 
  "/>
<polyline clip-path="url(#clip571)" style="stroke:#ededed; stroke-linecap:butt; stroke-linejoin:round; stroke-width:2.192; stroke-opacity:1; fill:none" points="
  182.625,871.32 1351.43,871.32 
  "/>
<polyline clip-path="url(#clip571)" style="stroke:#ededed; stroke-linecap:butt; stroke-linejoin:round; stroke-width:2.192; stroke-opacity:1; fill:none" points="
  182.625,783.64 1351.43,783.64 
  "/>
<polyline clip-path="url(#clip571)" style="stroke:#ededed; stroke-linecap:butt; stroke-linejoin:round; stroke-width:2.192; stroke-opacity:1; fill:none" points="
  182.625,695.96 1351.43,695.96 
  "/>
<polyline clip-path="url(#clip571)" style="stroke:#ededed; stroke-linecap:butt; stroke-linejoin:round; stroke-width:2.192; stroke-opacity:1; fill:none" points="
  182.625,608.28 1351.43,608.28 
  "/>
<polyline clip-path="url(#clip571)" style="stroke:#cccccc; stroke-linecap:butt; stroke-linejoin:round; stroke-width:2.192; stroke-opacity:1; fill:none" points="
  182.625,520.6 1351.43,520.6 
  "/>
<polyline clip-path="url(#clip571)" style="stroke:#ededed; stroke-linecap:butt; stroke-linejoin:round; stroke-width:2.192; stroke-opacity:1; fill:none" points="
  182.625,432.92 1351.43,432.92 
  "/>
<polyline clip-path="url(#clip571)" style="stroke:#ededed; stroke-linecap:butt; stroke-linejoin:round; stroke-width:2.192; stroke-opacity:1; fill:none" points="
  182.625,345.24 1351.43,345.24 
  "/>
<polyline clip-path="url(#clip571)" style="stroke:#ededed; stroke-linecap:butt; stroke-linejoin:round; stroke-width:2.192; stroke-opacity:1; fill:none" points="
  182.625,257.56 1351.43,257.56 
  "/>
<polyline clip-path="url(#clip571)" style="stroke:#ededed; stroke-linecap:butt; stroke-linejoin:round; stroke-width:2.192; stroke-opacity:1; fill:none" points="
  182.625,169.88 1351.43,169.88 
  "/>
<polyline clip-path="url(#clip571)" style="stroke:#cccccc; stroke-linecap:butt; stroke-linejoin:round; stroke-width:2.192; stroke-opacity:1; fill:none" points="
  182.625,82.2 1351.43,82.2 
  "/>
<polyline clip-path="url(#clip571)" style="stroke:#cccccc; stroke-linecap:butt; stroke-linejoin:round; stroke-width:2.192; stroke-opacity:1; fill:none" points="
  182.625,959 182.625,82.2 
  "/>
<polyline clip-path="url(#clip571)" style="stroke:#ededed; stroke-linecap:butt; stroke-linejoin:round; stroke-width:2.192; stroke-opacity:1; fill:none" points="
  288.88,959 288.88,82.2 
  "/>
<polyline clip-path="url(#clip571)" style="stroke:#ededed; stroke-linecap:butt; stroke-linejoin:round; stroke-width:2.192; stroke-opacity:1; fill:none" points="
  395.134,959 395.134,82.2 
  "/>
<polyline clip-path="url(#clip571)" style="stroke:#ededed; stroke-linecap:butt; stroke-linejoin:round; stroke-width:2.192; stroke-opacity:1; fill:none" points="
  501.389,959 501.389,82.2 
  "/>
<polyline clip-path="url(#clip571)" style="stroke:#ededed; stroke-linecap:butt; stroke-linejoin:round; stroke-width:2.192; stroke-opacity:1; fill:none" points="
  607.643,959 607.643,82.2 
  "/>
<polyline clip-path="url(#clip571)" style="stroke:#cccccc; stroke-linecap:butt; stroke-linejoin:round; stroke-width:2.192; stroke-opacity:1; fill:none" points="
  713.898,959 713.898,82.2 
  "/>
<polyline clip-path="url(#clip571)" style="stroke:#ededed; stroke-linecap:butt; stroke-linejoin:round; stroke-width:2.192; stroke-opacity:1; fill:none" points="
  820.152,959 820.152,82.2 
  "/>
<polyline clip-path="url(#clip571)" style="stroke:#ededed; stroke-linecap:butt; stroke-linejoin:round; stroke-width:2.192; stroke-opacity:1; fill:none" points="
  926.407,959 926.407,82.2 
  "/>
<polyline clip-path="url(#clip571)" style="stroke:#ededed; stroke-linecap:butt; stroke-linejoin:round; stroke-width:2.192; stroke-opacity:1; fill:none" points="
  1032.66,959 1032.66,82.2 
  "/>
<polyline clip-path="url(#clip571)" style="stroke:#ededed; stroke-linecap:butt; stroke-linejoin:round; stroke-width:2.192; stroke-opacity:1; fill:none" points="
  1138.92,959 1138.92,82.2 
  "/>
<polyline clip-path="url(#clip571)" style="stroke:#cccccc; stroke-linecap:butt; stroke-linejoin:round; stroke-width:2.192; stroke-opacity:1; fill:none" points="
  1245.17,959 1245.17,82.2 
  "/>
<polyline clip-path="url(#clip571)" style="stroke:#ededed; stroke-linecap:butt; stroke-linejoin:round; stroke-width:2.192; stroke-opacity:1; fill:none" points="
  1351.43,959 1351.43,82.2 
  "/>
<path clip-path="url(#clip571)" d="M122.06 959.218 Q122.286 959.444 122.286 959.763 Q122.286 960.083 122.06 960.309 Q121.835 960.534 121.515 960.534 L97.4165 960.534 Q97.097 960.534 96.8714 960.309 Q96.6458 960.083 96.6458 959.763 Q96.6458 959.444 96.8714 959.218 Q97.097 958.993 97.4165 958.993 L121.515 958.993 Q121.835 958.993 122.06 959.218 Z" fill="#000000" fill-rule="evenodd" fill-opacity="1" /><path clip-path="url(#clip571)" d="M125.933 957.075 Q125.933 951.415 127.361 948.332 Q129.354 943.744 134.053 943.744 Q135.05 943.744 136.083 944.026 Q137.136 944.289 138.452 945.324 Q139.787 946.358 140.595 948.05 Q142.136 951.321 142.136 957.075 Q142.136 962.697 140.708 965.761 Q138.621 970.236 134.016 970.236 Q132.286 970.236 130.519 969.352 Q128.771 968.469 127.662 966.344 Q125.933 963.167 125.933 957.075 M129.128 956.605 Q129.128 962.415 129.542 964.727 Q130.012 967.228 131.29 968.318 Q132.587 969.39 134.016 969.39 Q135.557 969.39 136.835 968.243 Q138.132 967.077 138.527 964.577 Q138.959 962.114 138.941 956.605 Q138.941 951.246 138.565 949.103 Q138.057 946.602 136.704 945.606 Q135.369 944.59 134.016 944.59 Q133.508 944.59 132.963 944.741 Q132.437 944.891 131.666 945.324 Q130.895 945.756 130.294 946.828 Q129.711 947.899 129.429 949.516 Q129.128 951.603 129.128 956.605 Z" fill="#000000" fill-rule="evenodd" fill-opacity="1" /><path clip-path="url(#clip571)" d="M147.531 968.77 Q146.949 968.149 146.949 967.341 Q146.949 966.532 147.531 965.949 Q148.114 965.348 148.997 965.348 Q149.843 965.348 150.407 965.912 Q150.99 966.457 150.99 967.359 Q150.99 968.243 150.37 968.826 Q149.768 969.39 148.997 969.39 Q148.114 969.39 147.531 968.77 Z" fill="#000000" fill-rule="evenodd" fill-opacity="1" /><path clip-path="url(#clip571)" d="M156.291 963.185 Q156.291 962.038 156.911 961.606 Q157.532 961.155 158.19 961.155 Q159.073 961.155 159.581 961.719 Q160.107 962.264 160.107 963.035 Q160.107 963.806 159.581 964.37 Q159.073 964.915 158.19 964.915 Q157.757 964.915 157.532 964.84 Q158.039 966.607 159.581 967.886 Q161.141 969.164 163.19 969.164 Q165.765 969.164 167.306 966.664 Q168.228 965.047 168.228 961.38 Q168.228 958.146 167.532 956.53 Q166.461 954.066 164.261 954.066 Q161.141 954.066 159.299 956.755 Q159.073 957.094 158.81 957.112 Q158.434 957.112 158.34 956.906 Q158.265 956.68 158.265 956.097 L158.265 944.703 Q158.265 943.782 158.641 943.782 Q158.791 943.782 159.111 943.895 Q161.536 944.966 164.224 944.985 Q166.987 944.985 169.468 943.857 Q169.656 943.744 169.769 943.744 Q170.145 943.744 170.164 944.177 Q170.164 944.327 169.844 944.778 Q169.543 945.211 168.885 945.794 Q168.228 946.358 167.382 946.903 Q166.536 947.448 165.295 947.824 Q164.073 948.181 162.72 948.181 Q161.103 948.181 159.449 947.674 L159.449 955.176 Q161.442 953.22 164.336 953.22 Q167.419 953.22 169.543 955.702 Q171.667 958.184 171.667 961.644 Q171.667 965.272 169.149 967.754 Q166.649 970.236 163.265 970.236 Q160.182 970.236 158.227 968.036 Q156.291 965.837 156.291 963.185 Z" fill="#000000" fill-rule="evenodd" fill-opacity="1" /><path clip-path="url(#clip571)" d="M155.464 518.675 Q155.464 513.015 156.892 509.932 Q158.885 505.344 163.584 505.344 Q164.581 505.344 165.615 505.626 Q166.667 505.889 167.983 506.924 Q169.318 507.958 170.126 509.65 Q171.667 512.921 171.667 518.675 Q171.667 524.297 170.239 527.361 Q168.152 531.836 163.547 531.836 Q161.817 531.836 160.051 530.952 Q158.302 530.069 157.193 527.944 Q155.464 524.767 155.464 518.675 M158.659 518.205 Q158.659 524.015 159.073 526.327 Q159.543 528.828 160.821 529.918 Q162.118 530.99 163.547 530.99 Q165.088 530.99 166.367 529.843 Q167.664 528.677 168.058 526.177 Q168.491 523.714 168.472 518.205 Q168.472 512.846 168.096 510.703 Q167.588 508.202 166.235 507.206 Q164.9 506.19 163.547 506.19 Q163.039 506.19 162.494 506.341 Q161.968 506.491 161.197 506.924 Q160.426 507.356 159.825 508.428 Q159.242 509.499 158.96 511.116 Q158.659 513.203 158.659 518.205 Z" fill="#000000" fill-rule="evenodd" fill-opacity="1" /><path clip-path="url(#clip571)" d="M125.933 80.2748 Q125.933 74.6154 127.361 71.5318 Q129.354 66.9442 134.053 66.9442 Q135.05 66.9442 136.083 67.2262 Q137.136 67.4894 138.452 68.5235 Q139.787 69.5576 140.595 71.2498 Q142.136 74.5214 142.136 80.2748 Q142.136 85.8966 140.708 88.9613 Q138.621 93.4362 134.016 93.4362 Q132.286 93.4362 130.519 92.5525 Q128.771 91.6688 127.662 89.5442 Q125.933 86.3666 125.933 80.2748 M129.128 79.8047 Q129.128 85.6145 129.542 87.9272 Q130.012 90.4278 131.29 91.5184 Q132.587 92.5901 134.016 92.5901 Q135.557 92.5901 136.835 91.4432 Q138.132 90.2774 138.527 87.7768 Q138.959 85.3137 138.941 79.8047 Q138.941 74.4461 138.565 72.3027 Q138.057 69.8021 136.704 68.8055 Q135.369 67.7902 134.016 67.7902 Q133.508 67.7902 132.963 67.9407 Q132.437 68.0911 131.666 68.5235 Q130.895 68.956 130.294 70.0277 Q129.711 71.0994 129.429 72.7164 Q129.128 74.8034 129.128 79.8047 Z" fill="#000000" fill-rule="evenodd" fill-opacity="1" /><path clip-path="url(#clip571)" d="M147.531 91.9696 Q146.949 91.3491 146.949 90.5407 Q146.949 89.7322 147.531 89.1493 Q148.114 88.5476 148.997 88.5476 Q149.843 88.5476 150.407 89.1117 Q150.99 89.657 150.99 90.5595 Q150.99 91.4432 150.37 92.026 Q149.768 92.5901 148.997 92.5901 Q148.114 92.5901 147.531 91.9696 Z" fill="#000000" fill-rule="evenodd" fill-opacity="1" /><path clip-path="url(#clip571)" d="M156.291 86.3854 Q156.291 85.2385 156.911 84.8061 Q157.532 84.3548 158.19 84.3548 Q159.073 84.3548 159.581 84.9189 Q160.107 85.4641 160.107 86.235 Q160.107 87.0059 159.581 87.5699 Q159.073 88.1152 158.19 88.1152 Q157.757 88.1152 157.532 88.04 Q158.039 89.8074 159.581 91.0859 Q161.141 92.3645 163.19 92.3645 Q165.765 92.3645 167.306 89.8638 Q168.228 88.2468 168.228 84.5804 Q168.228 81.3465 167.532 79.7295 Q166.461 77.2664 164.261 77.2664 Q161.141 77.2664 159.299 79.9551 Q159.073 80.2936 158.81 80.3124 Q158.434 80.3124 158.34 80.1056 Q158.265 79.8799 158.265 79.2971 L158.265 67.9031 Q158.265 66.9818 158.641 66.9818 Q158.791 66.9818 159.111 67.0946 Q161.536 68.1663 164.224 68.1851 Q166.987 68.1851 169.468 67.057 Q169.656 66.9442 169.769 66.9442 Q170.145 66.9442 170.164 67.3766 Q170.164 67.527 169.844 67.9783 Q169.543 68.4107 168.885 68.9936 Q168.228 69.5576 167.382 70.1029 Q166.536 70.6481 165.295 71.0242 Q164.073 71.3814 162.72 71.3814 Q161.103 71.3814 159.449 70.8738 L159.449 78.3758 Q161.442 76.4204 164.336 76.4204 Q167.419 76.4204 169.543 78.9022 Q171.667 81.3841 171.667 84.8437 Q171.667 88.4724 169.149 90.9543 Q166.649 93.4362 163.265 93.4362 Q160.182 93.4362 158.227 91.2363 Q156.291 89.0365 156.291 86.3854 Z" fill="#000000" fill-rule="evenodd" fill-opacity="1" /><polyline clip-path="url(#clip571)" style="stroke:#000000; stroke-linecap:butt; stroke-linejoin:round; stroke-width:2.192; stroke-opacity:1; fill:none" points="
  182.625,959 182.625,959 204.54,959 182.625,959 182.625,871.32 193.583,871.32 182.625,871.32 182.625,783.64 193.583,783.64 182.625,783.64 
  182.625,695.96 193.583,695.96 182.625,695.96 182.625,608.28 193.583,608.28 182.625,608.28 182.625,520.6 204.54,520.6 182.625,520.6 182.625,432.92 
  193.583,432.92 182.625,432.92 182.625,345.24 193.583,345.24 182.625,345.24 182.625,257.56 193.583,257.56 182.625,257.56 182.625,169.88 193.583,169.88 
  182.625,169.88 182.625,82.2 204.54,82.2 182.625,82.2 
  "/>
<path clip-path="url(#clip571)" d="M174.523 990.262 Q174.523 984.602 175.952 981.519 Q177.944 976.931 182.644 976.931 Q183.64 976.931 184.674 977.213 Q185.727 977.476 187.042 978.51 Q188.377 979.545 189.185 981.237 Q190.727 984.508 190.727 990.262 Q190.727 995.883 189.298 998.948 Q187.212 1003.42 182.606 1003.42 Q180.877 1003.42 179.11 1002.54 Q177.362 1001.66 176.253 999.531 Q174.523 996.353 174.523 990.262 M177.719 989.792 Q177.719 995.601 178.132 997.914 Q178.602 1000.41 179.881 1001.51 Q181.178 1002.58 182.606 1002.58 Q184.148 1002.58 185.426 1001.43 Q186.723 1000.26 187.118 997.764 Q187.55 995.301 187.531 989.792 Q187.531 984.433 187.155 982.29 Q186.648 979.789 185.294 978.792 Q183.96 977.777 182.606 977.777 Q182.099 977.777 181.554 977.928 Q181.027 978.078 180.256 978.51 Q179.486 978.943 178.884 980.015 Q178.302 981.086 178.02 982.703 Q177.719 984.79 177.719 989.792 Z" fill="#000000" fill-rule="evenodd" fill-opacity="1" /><path clip-path="url(#clip571)" d="M706.209 996.372 Q706.209 995.225 706.83 994.793 Q707.45 994.342 708.108 994.342 Q708.992 994.342 709.499 994.906 Q710.025 995.451 710.025 996.222 Q710.025 996.993 709.499 997.557 Q708.992 998.102 708.108 998.102 Q707.676 998.102 707.45 998.027 Q707.958 999.794 709.499 1001.07 Q711.059 1002.35 713.108 1002.35 Q715.684 1002.35 717.225 999.851 Q718.146 998.234 718.146 994.567 Q718.146 991.333 717.45 989.716 Q716.379 987.253 714.18 987.253 Q711.059 987.253 709.217 989.942 Q708.992 990.28 708.728 990.299 Q708.352 990.299 708.258 990.092 Q708.183 989.867 708.183 989.284 L708.183 977.89 Q708.183 976.969 708.559 976.969 Q708.71 976.969 709.029 977.081 Q711.454 978.153 714.142 978.172 Q716.905 978.172 719.387 977.044 Q719.575 976.931 719.687 976.931 Q720.063 976.931 720.082 977.363 Q720.082 977.514 719.763 977.965 Q719.462 978.398 718.804 978.98 Q718.146 979.545 717.3 980.09 Q716.454 980.635 715.214 981.011 Q713.992 981.368 712.638 981.368 Q711.022 981.368 709.367 980.861 L709.367 988.363 Q711.36 986.407 714.255 986.407 Q717.338 986.407 719.462 988.889 Q721.586 991.371 721.586 994.831 Q721.586 998.459 719.067 1000.94 Q716.567 1003.42 713.183 1003.42 Q710.101 1003.42 708.146 1001.22 Q706.209 999.023 706.209 996.372 Z" fill="#000000" fill-rule="evenodd" fill-opacity="1" /><path clip-path="url(#clip571)" d="M1228.4 980.597 L1228.4 979.394 Q1233.03 979.394 1235.41 976.931 Q1236.07 976.931 1236.19 977.081 Q1236.3 977.232 1236.3 977.928 L1236.3 999.531 Q1236.3 1000.68 1236.86 1001.04 Q1237.43 1001.39 1239.89 1001.39 L1241.11 1001.39 L1241.11 1002.58 Q1239.76 1002.46 1234.87 1002.46 Q1229.98 1002.46 1228.65 1002.58 L1228.65 1001.39 L1229.87 1001.39 Q1232.29 1001.39 1232.88 1001.05 Q1233.46 1000.7 1233.46 999.531 L1233.46 979.582 Q1231.45 980.597 1228.4 980.597 Z" fill="#000000" fill-rule="evenodd" fill-opacity="1" /><path clip-path="url(#clip571)" d="M1245.73 990.262 Q1245.73 984.602 1247.16 981.519 Q1249.16 976.931 1253.85 976.931 Q1254.85 976.931 1255.89 977.213 Q1256.94 977.476 1258.25 978.51 Q1259.59 979.545 1260.4 981.237 Q1261.94 984.508 1261.94 990.262 Q1261.94 995.883 1260.51 998.948 Q1258.42 1003.42 1253.82 1003.42 Q1252.09 1003.42 1250.32 1002.54 Q1248.57 1001.66 1247.46 999.531 Q1245.73 996.353 1245.73 990.262 M1248.93 989.792 Q1248.93 995.601 1249.34 997.914 Q1249.81 1000.41 1251.09 1001.51 Q1252.39 1002.58 1253.82 1002.58 Q1255.36 1002.58 1256.64 1001.43 Q1257.93 1000.26 1258.33 997.764 Q1258.76 995.301 1258.74 989.792 Q1258.74 984.433 1258.37 982.29 Q1257.86 979.789 1256.51 978.792 Q1255.17 977.777 1253.82 977.777 Q1253.31 977.777 1252.76 977.928 Q1252.24 978.078 1251.47 978.51 Q1250.7 978.943 1250.1 980.015 Q1249.51 981.086 1249.23 982.703 Q1248.93 984.79 1248.93 989.792 Z" fill="#000000" fill-rule="evenodd" fill-opacity="1" /><polyline clip-path="url(#clip571)" style="stroke:#000000; stroke-linecap:butt; stroke-linejoin:round; stroke-width:2.192; stroke-opacity:1; fill:none" points="
  182.625,959 182.625,959 182.625,937.08 182.625,959 288.88,959 288.88,948.04 288.88,959 395.134,959 395.134,948.04 395.134,959 
  501.389,959 501.389,948.04 501.389,959 607.643,959 607.643,948.04 607.643,959 713.898,959 713.898,937.08 713.898,959 820.152,959 
  820.152,948.04 820.152,959 926.407,959 926.407,948.04 926.407,959 1032.66,959 1032.66,948.04 1032.66,959 1138.92,959 1138.92,948.04 
  1138.92,959 1245.17,959 1245.17,937.08 1245.17,959 1351.43,959 1351.43,948.04 1351.43,959 
  "/>
<polyline clip-path="url(#clip571)" style="stroke:#000000; stroke-linecap:butt; stroke-linejoin:round; stroke-width:2.192; stroke-opacity:1; fill:none" points="
  1351.43,959 1351.43,959 1329.51,959 1351.43,959 1351.43,871.32 1340.47,871.32 1351.43,871.32 1351.43,783.64 1340.47,783.64 1351.43,783.64 
  1351.43,695.96 1340.47,695.96 1351.43,695.96 1351.43,608.28 1340.47,608.28 1351.43,608.28 1351.43,520.6 1329.51,520.6 1351.43,520.6 1351.43,432.92 
  1340.47,432.92 1351.43,432.92 1351.43,345.24 1340.47,345.24 1351.43,345.24 1351.43,257.56 1340.47,257.56 1351.43,257.56 1351.43,169.88 1340.47,169.88 
  1351.43,169.88 1351.43,82.2 1329.51,82.2 1351.43,82.2 
  "/>
<polyline clip-path="url(#clip571)" style="stroke:#000000; stroke-linecap:butt; stroke-linejoin:round; stroke-width:2.192; stroke-opacity:1; fill:none" points="
  182.625,82.2 182.625,82.2 182.625,104.12 182.625,82.2 288.88,82.2 288.88,93.16 288.88,82.2 395.134,82.2 395.134,93.16 395.134,82.2 
  501.389,82.2 501.389,93.16 501.389,82.2 607.643,82.2 607.643,93.16 607.643,82.2 713.898,82.2 713.898,104.12 713.898,82.2 820.152,82.2 
  820.152,93.16 820.152,82.2 926.407,82.2 926.407,93.16 926.407,82.2 1032.66,82.2 1032.66,93.16 1032.66,82.2 1138.92,82.2 1138.92,93.16 
  1138.92,82.2 1245.17,82.2 1245.17,104.12 1245.17,82.2 1351.43,82.2 1351.43,93.16 1351.43,82.2 
  "/>
<polyline clip-path="url(#clip570)" style="stroke:#00528a; stroke-linecap:butt; stroke-linejoin:round; stroke-width:2.192; stroke-opacity:1; fill:none" points="
  182.625,520.6 184.754,520.255 186.884,519.247 189.013,517.616 191.142,515.4 193.272,512.636 195.401,509.36 197.53,505.605 199.66,501.404 201.789,496.789 
  203.918,491.79 206.048,486.435 208.177,480.754 210.307,474.774 212.436,468.521 214.565,462.021 216.695,455.299 218.824,448.379 220.953,441.284 223.083,434.039 
  225.212,426.666 227.341,419.186 229.471,411.623 231.6,403.998 233.729,396.331 235.859,388.645 237.988,380.959 240.117,373.296 242.247,365.674 244.376,358.116 
  246.505,350.641 248.635,343.269 250.764,336.021 252.894,328.917 255.023,321.976 257.152,315.22 259.282,308.668 261.411,302.339 263.54,296.253 265.67,290.43 
  267.799,284.89 269.928,279.65 272.058,274.73 274.187,270.149 276.316,265.925 278.446,262.075 280.575,258.617 282.704,255.567 284.834,252.942 286.963,250.757 
  289.092,249.026 291.222,247.763 293.351,246.981 295.481,246.693 297.61,246.907 299.739,247.635 301.869,248.884 303.998,250.661 306.127,252.971 308.257,255.818 
  310.386,259.203 312.515,263.128 314.645,267.59 316.774,272.586 318.903,278.11 321.033,284.155 323.162,290.71 325.291,297.764 327.421,305.303 329.55,313.309 
  331.679,321.764 333.809,330.647 335.938,339.934 338.068,349.598 340.197,359.613 342.326,369.946 344.456,380.567 346.585,391.438 348.714,402.524 350.844,413.786 
  352.973,425.182 355.102,436.671 357.232,448.209 359.361,459.75 361.49,471.248 363.62,482.655 365.749,493.925 367.878,505.008 370.008,515.856 372.137,526.421 
  374.266,536.655 376.396,546.511 378.525,555.944 380.655,564.908 382.784,573.361 384.913,581.263 387.043,588.575 389.172,595.263 391.301,601.293 393.431,606.638 
  395.56,611.273 397.689,615.176 399.819,618.331 401.948,620.726 404.077,622.355 406.207,623.215 408.336,623.309 410.465,622.647 412.595,621.241 414.724,619.111 
  416.853,616.281 418.983,612.783 421.112,608.65 423.242,603.924 425.371,598.65 427.5,592.877 429.63,586.659 431.759,580.056 433.888,573.128 436.018,565.939 
  438.147,558.557 440.276,551.05 442.406,543.488 444.535,535.942 446.664,528.483 448.794,521.181 450.923,514.103 453.052,507.316 455.182,500.884 457.311,494.866 
  459.44,489.317 461.57,484.288 463.699,479.824 465.828,475.963 467.958,472.738 470.087,470.174 472.217,468.287 474.346,467.087 476.475,466.577 478.605,466.749 
  480.734,467.588 482.863,469.073 484.993,471.172 487.122,473.847 489.251,477.053 491.381,480.738 493.51,484.844 495.639,489.308 497.769,494.063 499.898,499.037 
  502.027,504.156 504.157,509.346 506.286,514.531 508.415,519.635 510.545,524.586 512.674,529.311 514.804,533.745 516.933,537.826 519.062,541.498 521.192,544.712 
  523.321,547.427 525.45,549.608 527.58,551.233 529.709,552.286 531.838,552.761 533.968,552.665 536.097,552.009 538.226,550.819 540.356,549.127 542.485,546.973 
  544.614,544.408 546.744,541.487 548.873,538.271 551.002,534.828 553.132,531.228 555.261,527.543 557.391,523.845 559.52,520.208 561.649,516.703 563.779,513.395 
  565.908,510.348 568.037,507.618 570.167,505.253 572.296,503.295 574.425,501.776 576.555,500.717 578.684,500.13 580.813,500.018 582.943,500.371 585.072,501.17 
  587.201,502.387 589.331,503.984 591.46,505.914 593.589,508.124 595.719,510.557 597.848,513.148 599.978,515.831 602.107,518.54 604.236,521.206 606.366,523.765 
  608.495,526.156 610.624,528.322 612.754,530.213 614.883,531.788 617.012,533.014 619.142,533.867 621.271,534.334 623.4,534.412 625.53,534.108 627.659,533.442 
  629.788,532.44 631.918,531.139 634.047,529.584 636.176,527.825 638.306,525.917 640.435,523.92 642.565,521.895 644.694,519.902 646.823,518 648.953,516.243 
  651.082,514.68 653.211,513.355 655.341,512.303 657.47,511.548 659.599,511.107 661.729,510.985 663.858,511.179 665.987,511.672 668.117,512.442 670.246,513.455 
  672.375,514.672 674.505,516.045 676.634,517.526 678.763,519.06 680.893,520.593 683.022,522.072 685.152,523.448 687.281,524.674 689.41,525.711 691.54,526.526 
  693.669,527.098 695.798,527.41 697.928,527.46 700.057,527.252 702.186,526.801 704.316,526.131 706.445,525.273 708.574,524.266 710.704,523.151 712.833,521.977 
  714.962,520.79 717.092,519.637 719.221,518.564 721.35,517.611 723.48,516.814 725.609,516.201 727.738,515.791 729.868,515.597 731.997,515.62 734.127,515.852 
  736.256,516.279 738.385,516.877 740.515,517.614 742.644,518.456 744.773,519.362 746.903,520.29 749.032,521.199 751.161,522.049 753.291,522.802 755.42,523.428 
  757.549,523.902 759.679,524.206 761.808,524.33 763.937,524.275 766.067,524.048 768.196,523.665 770.325,523.148 772.455,522.526 774.584,521.833 776.714,521.104 
  778.843,520.376 780.972,519.686 783.102,519.066 785.231,518.546 787.36,518.149 789.49,517.892 791.619,517.784 793.748,517.826 795.878,518.011 798.007,518.326 
  800.136,518.75 802.266,519.257 804.395,519.819 806.524,520.402 808.654,520.975 810.783,521.507 812.912,521.97 815.042,522.34 817.171,522.599 819.301,522.736 
  821.43,522.747 823.559,522.635 825.689,522.411 827.818,522.09 829.947,521.693 832.077,521.248 834.206,520.78 836.335,520.318 838.465,519.89 840.594,519.52 
  842.723,519.229 844.853,519.032 846.982,518.938 849.111,518.95 851.241,519.064 853.37,519.27 855.499,519.551 857.629,519.889 859.758,520.26 861.888,520.64 
  864.017,521.002 866.146,521.326 868.276,521.591 870.405,521.78 872.534,521.885 874.664,521.901 876.793,521.829 878.922,521.677 881.052,521.458 883.181,521.189 
  885.31,520.888 887.44,520.579 889.569,520.283 891.698,520.019 893.828,519.806 895.957,519.657 898.086,519.58 900.216,519.579 902.345,519.651 904.475,519.789 
  906.604,519.981 908.733,520.211 910.863,520.461 912.992,520.713 915.121,520.947 917.251,521.146 919.38,521.297 921.509,521.39 923.639,521.419 925.768,521.385 
  927.897,521.291 930.027,521.147 932.156,520.966 934.285,520.763 936.415,520.555 938.544,520.358 940.673,520.187 942.803,520.055 944.932,519.973 947.062,519.944 
  949.191,519.969 951.32,520.045 953.45,520.164 955.579,520.315 957.708,520.484 959.838,520.656 961.967,520.818 964.096,520.955 966.226,521.056 968.355,521.115 
  970.484,521.128 972.614,521.095 974.743,521.019 976.872,520.91 979.002,520.778 981.131,520.635 983.26,520.494 985.39,520.368 987.519,520.267 989.649,520.2 
  991.778,520.171 993.907,520.183 996.037,520.233 998.166,520.314 1000.3,520.419 1002.42,520.537 1004.55,520.656 1006.68,520.766 1008.81,520.856 1010.94,520.918 
  1013.07,520.948 1015.2,520.943 1017.33,520.906 1019.46,520.84 1021.59,520.753 1023.72,520.655 1025.85,520.554 1027.98,520.462 1030.11,520.387 1032.24,520.336 
  1034.36,520.314 1036.49,520.321 1038.62,520.356 1040.75,520.414 1042.88,520.49 1045.01,520.574 1047.14,520.657 1049.27,520.732 1051.4,520.79 1053.53,520.826 
  1055.66,520.837 1057.79,520.822 1059.92,520.784 1062.05,520.728 1064.18,520.661 1066.31,520.589 1068.43,520.521 1070.56,520.464 1072.69,520.424 1074.82,520.405 
  1076.95,520.409 1079.08,520.433 1081.21,520.475 1083.34,520.529 1085.47,520.59 1087.6,520.649 1089.73,520.701 1091.86,520.739 1093.99,520.76 1096.12,520.761 
  1098.25,520.744 1100.37,520.711 1102.5,520.666 1104.63,520.615 1106.76,520.564 1108.89,520.519 1111.02,520.486 1113.15,520.467 1115.28,520.465 1117.41,520.48 
  1119.54,520.508 1121.67,520.546 1123.8,520.59 1125.93,520.633 1128.06,520.671 1130.19,520.698 1132.31,520.712 1134.44,520.712 1136.57,520.697 1138.7,520.671 
  1140.83,520.637 1142.96,520.599 1145.09,520.563 1147.22,520.533 1149.35,520.513 1151.48,520.504 1153.61,520.509 1155.74,520.525 1157.87,520.55 1160,520.581 
  1162.13,520.614 1164.26,520.643 1166.38,520.665 1168.51,520.678 1170.64,520.68 1172.77,520.671 1174.9,520.653 1177.03,520.628 1179.16,520.6 1181.29,520.574 
  1183.42,520.551 1185.55,520.537 1187.68,520.532 1189.81,520.536 1191.94,520.55 1194.07,520.569 1196.2,520.593 1198.32,520.617 1200.45,520.637 1202.58,520.651 
  1204.71,520.658 1206.84,520.655 1208.97,520.645 1211.1,520.629 1213.23,520.609 1215.36,520.589 1217.49,520.57 1219.62,520.557 1221.75,520.551 1223.88,520.552 
  1226.01,520.561 1228.14,520.575 1230.27,520.592 1232.39,520.61 1234.52,520.625 1236.65,520.637 1238.78,520.642 1240.91,520.64 1243.04,520.633 1245.17,520.62 
  
  "/>
<polyline clip-path="url(#clip570)" style="stroke:#000000; stroke-linecap:butt; stroke-linejoin:round; stroke-width:2.192; stroke-opacity:1; fill:none" stroke-dasharray="9, 5" points="
  288.88,-356.2 395.134,198.043 501.389,401.938 607.643,476.947 713.898,504.541 820.152,514.692 926.407,518.427 1032.66,519.8 1138.92,520.306 1245.17,520.492 
  1351.43,520.56 
  "/>
<polyline clip-path="url(#clip570)" style="stroke:#000000; stroke-linecap:butt; stroke-linejoin:round; stroke-width:2.192; stroke-opacity:1; fill:none" stroke-dasharray="9, 5" points="
  288.88,1397.4 395.134,843.157 501.389,639.262 607.643,564.253 713.898,536.659 820.152,526.508 926.407,522.773 1032.66,521.4 1138.92,520.894 1245.17,520.708 
  1351.43,520.64 
  "/>
<path clip-path="url(#clip571)" d="M655.818 31.5648 L655.818 30.3803 L656.739 30.3803 Q658.825 30.3803 659.295 30.0418 Q659.784 29.6846 659.784 28.5565 L659.784 8.38193 Q659.784 7.27261 659.295 6.93418 Q658.807 6.57694 656.739 6.57694 L655.818 6.57694 L655.818 5.37361 L677.491 5.37361 L678.563 14.0413 L677.604 14.0413 Q677.341 11.8415 676.984 10.5818 Q676.646 9.30323 675.8 8.32553 Q674.973 7.34782 673.6 6.97178 Q672.247 6.57694 670.048 6.57694 L665.085 6.57694 Q663.769 6.57694 663.487 6.85897 Q663.205 7.1222 663.205 8.1187 L663.205 17.3505 L666.664 17.3505 Q669.314 17.3505 670.066 16.4292 Q670.818 15.5079 670.818 12.8568 L671.796 12.8568 L671.796 23.0475 L670.818 23.0475 Q670.818 20.434 670.066 19.4939 Q669.314 18.5538 666.664 18.5538 L663.205 18.5538 L663.205 28.8385 Q663.205 29.835 663.487 30.117 Q663.788 30.3803 665.085 30.3803 L670.217 30.3803 Q671.871 30.3803 673.074 30.1735 Q674.296 29.9478 675.142 29.4214 Q675.988 28.8761 676.552 28.2556 Q677.134 27.6352 677.529 26.5259 Q677.943 25.3977 678.168 24.3636 Q678.413 23.3295 678.676 21.6373 L679.634 21.6373 L678.018 31.5648 L655.818 31.5648 Z" fill="#000000" fill-rule="evenodd" fill-opacity="1" /><path clip-path="url(#clip571)" d="M681.176 31.5648 L681.176 30.3803 Q684.183 30.3803 686.101 28.0676 Q686.101 28.0676 689.71 23.4799 L685.894 18.5162 Q684.541 16.7864 683.939 16.4856 Q683.356 16.166 681.364 16.166 L681.364 14.9626 Q682.943 15.0754 685.011 15.0754 Q686.157 15.0754 689.184 14.9626 L689.184 16.166 Q687.83 16.2412 687.83 17.1249 Q687.83 17.4257 688.169 17.8205 L691.176 21.7126 L693.564 18.7042 Q694.146 18.0086 694.146 17.3505 Q694.146 16.2788 693.018 16.166 L693.018 14.9626 Q694.522 15.0754 696.722 15.0754 Q698.376 15.0754 699.88 14.9626 L699.88 16.166 Q696.947 16.2412 695.293 18.159 Q694.56 18.9675 691.759 22.521 L696.91 29.1769 Q697.53 29.9854 698.225 30.1923 Q698.921 30.3803 700.575 30.3803 L700.575 31.5648 Q698.846 31.452 696.872 31.452 Q696.176 31.452 692.718 31.5648 L692.718 30.3803 Q693.413 30.3427 693.752 30.0418 Q694.109 29.7222 694.109 29.4026 Q694.109 29.2522 693.3 28.1428 L690.368 24.2884 Q687.435 27.748 687.06 28.5565 Q686.909 28.8949 686.909 29.1769 Q686.909 30.2111 688.018 30.3803 L688.018 31.5648 Q685.255 31.452 684.371 31.452 Q682.68 31.452 681.176 31.5648 Z" fill="#000000" fill-rule="evenodd" fill-opacity="1" /><path clip-path="url(#clip571)" d="M702.605 27.8984 Q702.605 24.6269 706.459 22.8971 Q708.771 21.7878 713.546 21.5057 L713.546 20.0956 Q713.546 17.7077 712.286 16.448 Q711.045 15.1695 709.466 15.1695 Q706.647 15.1695 705.293 16.9368 Q706.44 16.9744 706.854 17.5573 Q707.267 18.1214 707.267 18.7042 Q707.267 19.4751 706.778 19.9828 Q706.308 20.4716 705.5 20.4716 Q704.729 20.4716 704.222 20.0016 Q703.714 19.5127 703.714 18.6666 Q703.714 16.7864 705.406 15.5455 Q707.117 14.3046 709.542 14.3046 Q712.7 14.3046 714.805 16.4292 Q715.463 17.0873 715.782 17.9333 Q716.121 18.7794 716.158 19.3435 Q716.196 19.8888 716.196 20.9793 L716.196 28.6693 Q716.196 28.8949 716.271 29.271 Q716.346 29.647 716.685 30.1358 Q717.042 30.6059 717.625 30.6059 Q719.016 30.6059 718.997 28.1428 L718.997 25.9806 L719.974 25.9806 L719.974 28.1428 Q719.974 30.1923 718.884 31.0007 Q717.813 31.7904 716.816 31.7904 Q715.538 31.7904 714.73 30.8503 Q713.921 29.9102 713.809 28.6317 Q713.226 30.0982 711.891 31.0571 Q710.575 31.9972 708.771 31.9972 Q707.38 31.9972 706.064 31.64 Q704.767 31.3016 703.677 30.3427 Q702.605 29.365 702.605 27.8984 M705.575 27.8608 Q705.575 29.2898 706.59 30.2111 Q707.605 31.1324 709.034 31.1324 Q710.651 31.1324 712.098 29.8914 Q713.546 28.6317 713.546 26.1686 L713.546 22.3142 Q709.278 22.4646 707.417 24.1756 Q705.575 25.8678 705.575 27.8608 Z" fill="#000000" fill-rule="evenodd" fill-opacity="1" /><path clip-path="url(#clip571)" d="M721.478 31.5648 L721.478 30.3803 Q723.527 30.3803 723.997 30.1358 Q724.467 29.8726 724.467 28.6317 L724.467 18.3094 Q724.467 16.8804 723.959 16.5232 Q723.471 16.166 721.478 16.166 L721.478 14.9626 L726.892 14.549 L726.892 18.5914 Q728.696 14.549 732.588 14.549 Q737.099 14.549 737.719 18.3094 Q738.377 16.8428 739.75 15.6959 Q741.141 14.549 743.302 14.549 Q746.197 14.549 747.344 15.9779 Q748.19 16.9368 748.359 18.0086 Q748.528 19.0803 748.528 21.863 L748.528 29.2145 Q748.566 30.023 749.186 30.2111 Q749.806 30.3803 751.536 30.3803 L751.536 31.5648 Q747.607 31.452 747.231 31.452 Q746.93 31.452 742.87 31.5648 L742.87 30.3803 Q744.919 30.3803 745.389 30.1358 Q745.878 29.8726 745.878 28.6317 L745.878 19.6631 Q745.878 17.7077 745.276 16.5608 Q744.675 15.3951 743.02 15.3951 Q741.028 15.3951 739.43 17.0685 Q737.832 18.7418 737.832 21.5621 L737.832 28.6317 Q737.832 29.8726 738.302 30.1358 Q738.791 30.3803 740.84 30.3803 L740.84 31.5648 Q736.911 31.452 736.516 31.452 Q736.216 31.452 732.174 31.5648 L732.174 30.3803 Q734.223 30.3803 734.693 30.1358 Q735.182 29.8726 735.182 28.6317 L735.182 19.6631 Q735.182 17.7077 734.58 16.5608 Q733.979 15.3951 732.324 15.3951 Q730.332 15.3951 728.734 17.0685 Q727.136 18.7418 727.136 21.5621 L727.136 28.6317 Q727.136 29.8726 727.606 30.1358 Q728.095 30.3803 730.125 30.3803 L730.125 31.5648 Q726.196 31.452 725.82 31.452 Q725.52 31.452 721.478 31.5648 Z" fill="#000000" fill-rule="evenodd" fill-opacity="1" /><path clip-path="url(#clip571)" d="M753.359 37.8447 Q755.408 37.8447 755.878 37.5814 Q756.367 37.337 756.367 36.1149 L756.367 18.0838 Q756.367 16.8052 755.878 16.4856 Q755.408 16.166 753.359 16.166 L753.359 14.9626 L758.904 14.549 L758.904 17.0873 Q761.217 14.549 764.299 14.549 Q767.57 14.549 769.957 17.0873 Q772.345 19.6255 772.345 23.2543 Q772.345 26.9207 769.807 29.459 Q767.269 31.9972 763.754 31.9972 Q761.837 31.9972 760.54 31.0195 Q759.262 30.023 759.017 29.2898 L759.017 29.647 L759.017 36.1149 Q759.017 37.3558 759.506 37.6002 Q759.995 37.8447 762.025 37.8447 L762.025 39.0292 Q757.983 38.9164 757.683 38.9164 Q757.307 38.9164 753.359 39.0292 L753.359 37.8447 M759.017 27.1839 Q759.017 27.7668 759.092 27.9736 Q759.186 28.1804 759.562 28.8009 Q761.085 31.1324 763.566 31.1324 Q763.585 31.1324 763.604 31.1324 Q765.803 31.1324 767.476 28.8949 Q769.149 26.6387 769.149 23.2543 Q769.149 20.0204 767.627 17.7641 Q766.104 15.5079 763.999 15.5079 Q762.495 15.5079 761.179 16.3164 Q759.863 17.1249 759.017 18.5914 L759.017 27.1839 Z" fill="#000000" fill-rule="evenodd" fill-opacity="1" /><path clip-path="url(#clip571)" d="M774.92 31.5648 L774.92 30.3803 Q776.969 30.3803 777.439 30.1358 Q777.909 29.8726 777.909 28.6317 L777.909 8.60756 Q777.909 7.1786 777.401 6.82137 Q776.913 6.46413 774.92 6.46413 L774.92 5.2608 L780.447 4.84716 L780.447 28.6317 Q780.447 29.8726 780.935 30.1358 Q781.424 30.3803 783.454 30.3803 L783.454 31.5648 Q782.984 31.5648 782.007 31.5272 Q781.029 31.4896 780.315 31.4708 Q779.601 31.452 779.187 31.452 Q778.736 31.452 774.92 31.5648 Z" fill="#000000" fill-rule="evenodd" fill-opacity="1" /><path clip-path="url(#clip571)" d="M785.372 23.0851 Q785.372 19.4563 787.702 16.8804 Q790.033 14.3046 793.379 14.3046 Q796.763 14.3046 798.511 16.5044 Q800.278 18.7042 800.278 21.863 Q800.278 22.4458 800.128 22.5586 Q799.977 22.6715 799.319 22.6715 L788.567 22.6715 Q788.567 26.6011 789.733 28.4437 Q791.349 31.0195 794.075 31.0195 Q794.451 31.0195 794.902 30.9443 Q795.353 30.8691 796.274 30.5495 Q797.195 30.2111 798.004 29.3274 Q798.812 28.4437 799.282 27.0523 Q799.395 26.5071 799.771 26.5259 Q800.278 26.5259 800.278 26.9771 Q800.278 27.3155 799.902 28.0864 Q799.545 28.8385 798.85 29.741 Q798.154 30.6435 796.801 31.3204 Q795.466 31.9972 793.849 31.9972 Q790.466 31.9972 787.909 29.4402 Q785.372 26.8643 785.372 23.0851 M788.605 21.863 L797.74 21.863 Q797.74 21.0545 797.59 20.152 Q797.458 19.2495 797.045 18.0086 Q796.65 16.7488 795.71 15.9591 Q794.77 15.1695 793.379 15.1695 Q792.759 15.1695 792.082 15.4327 Q791.424 15.6959 790.616 16.3352 Q789.808 16.9744 789.244 18.4222 Q788.68 19.87 788.605 21.863 Z" fill="#000000" fill-rule="evenodd" fill-opacity="1" /><path clip-path="url(#clip571)" d="M815.26 37.8447 Q817.309 37.8447 817.779 37.5814 Q818.268 37.337 818.268 36.1149 L818.268 18.0838 Q818.268 16.8052 817.779 16.4856 Q817.309 16.166 815.26 16.166 L815.26 14.9626 L820.805 14.549 L820.805 17.0873 Q823.117 14.549 826.2 14.549 Q829.471 14.549 831.858 17.0873 Q834.246 19.6255 834.246 23.2543 Q834.246 26.9207 831.708 29.459 Q829.17 31.9972 825.655 31.9972 Q823.738 31.9972 822.441 31.0195 Q821.162 30.023 820.918 29.2898 L820.918 29.647 L820.918 36.1149 Q820.918 37.3558 821.407 37.6002 Q821.896 37.8447 823.926 37.8447 L823.926 39.0292 Q819.884 38.9164 819.583 38.9164 Q819.207 38.9164 815.26 39.0292 L815.26 37.8447 M820.918 27.1839 Q820.918 27.7668 820.993 27.9736 Q821.087 28.1804 821.463 28.8009 Q822.986 31.1324 825.467 31.1324 Q825.486 31.1324 825.505 31.1324 Q827.704 31.1324 829.377 28.8949 Q831.05 26.6387 831.05 23.2543 Q831.05 20.0204 829.527 17.7641 Q828.005 15.5079 825.899 15.5079 Q824.396 15.5079 823.08 16.3164 Q821.764 17.1249 820.918 18.5914 L820.918 27.1839 Z" fill="#000000" fill-rule="evenodd" fill-opacity="1" /><path clip-path="url(#clip571)" d="M836.821 31.5648 L836.821 30.3803 Q838.87 30.3803 839.34 30.1358 Q839.81 29.8726 839.81 28.6317 L839.81 8.60756 Q839.81 7.1786 839.302 6.82137 Q838.813 6.46413 836.821 6.46413 L836.821 5.2608 L842.347 4.84716 L842.347 28.6317 Q842.347 29.8726 842.836 30.1358 Q843.325 30.3803 845.355 30.3803 L845.355 31.5648 Q844.885 31.5648 843.908 31.5272 Q842.93 31.4896 842.216 31.4708 Q841.502 31.452 841.088 31.452 Q840.637 31.452 836.821 31.5648 Z" fill="#000000" fill-rule="evenodd" fill-opacity="1" /><path clip-path="url(#clip571)" d="M849.81 29.4966 Q847.272 26.9771 847.272 23.3295 Q847.272 19.6631 849.754 16.9932 Q852.254 14.3046 855.825 14.3046 Q859.322 14.3046 861.822 16.9744 Q864.341 19.6255 864.341 23.3295 Q864.341 26.9583 861.803 29.4778 Q859.284 31.9972 855.788 31.9972 Q852.367 31.9972 849.81 29.4966 M850.468 23.0099 Q850.468 26.7515 851.446 28.4437 Q852.949 31.0195 855.825 31.0195 Q857.254 31.0195 858.438 30.2487 Q859.641 29.4778 860.299 28.1804 Q861.145 26.4883 861.145 23.0099 Q861.145 19.3059 860.13 17.6701 Q858.626 15.1695 855.788 15.1695 Q854.547 15.1695 853.325 15.8275 Q852.122 16.4668 851.389 17.7453 Q850.468 19.4375 850.468 23.0099 Z" fill="#000000" fill-rule="evenodd" fill-opacity="1" /><path clip-path="url(#clip571)" d="M866.183 16.166 L866.183 15.3199 Q867.95 15.2447 869.115 14.0037 Q870.3 12.744 870.694 11.2022 Q871.108 9.66047 871.146 7.87428 L872.104 7.87428 L872.104 14.9626 L877.612 14.9626 L877.612 16.166 L872.104 16.166 L872.104 26.8643 Q872.104 31.0195 874.698 31.0195 Q875.807 31.0195 876.54 29.8914 Q877.274 28.7445 877.274 26.7139 L877.274 24.5893 L878.232 24.5893 L878.232 26.7891 Q878.232 28.8761 877.274 30.4367 Q876.315 31.9972 874.416 31.9972 Q873.721 31.9972 873.025 31.8092 Q872.349 31.64 871.446 31.1888 Q870.563 30.7187 869.999 29.5906 Q869.454 28.4437 869.454 26.7891 L869.454 16.166 L866.183 16.166 Z" fill="#000000" fill-rule="evenodd" fill-opacity="1" /><path clip-path="url(#clip571)" d="M753.509 1074.96 L753.509 1073.77 Q755.276 1073.77 756.573 1073.23 Q757.871 1072.68 758.246 1072.29 Q758.641 1071.87 759.092 1071.22 L765.408 1061.91 L758.322 1051.19 Q757.777 1050.38 757.043 1050.12 Q756.329 1049.86 754.75 1049.86 L754.017 1049.86 L754.017 1048.65 Q756.141 1048.77 759.017 1048.77 Q763.284 1048.77 764.638 1048.65 L764.638 1049.86 Q763.491 1049.89 762.814 1050.27 Q762.138 1050.63 762.138 1051 Q762.138 1051.15 762.401 1051.59 L767.363 1059.01 L771.762 1052.51 Q772.1 1051.96 772.1 1051.62 Q772.1 1050.93 771.461 1050.42 Q770.841 1049.89 769.713 1049.86 L769.713 1048.65 Q771.254 1048.77 774.657 1048.77 Q775.089 1048.77 775.785 1048.75 Q776.499 1048.73 777.439 1048.69 Q778.379 1048.65 778.924 1048.65 L778.924 1049.86 Q775.033 1049.89 773.341 1052.36 L768.059 1060.08 L776.179 1072.38 Q776.762 1073.23 777.495 1073.51 Q778.228 1073.77 779.807 1073.77 L780.541 1073.77 L780.541 1074.96 Q778.116 1074.84 775.54 1074.84 Q771.273 1074.84 769.92 1074.96 L769.92 1073.77 Q771.067 1073.73 771.743 1073.38 Q772.42 1073 772.42 1072.61 Q772.42 1072.57 772.213 1072.19 L766.142 1062.98 L760.671 1071.06 Q760.295 1071.69 760.295 1071.99 Q760.295 1072.61 760.897 1073.17 Q761.517 1073.72 762.72 1073.77 L762.72 1074.96 Q761.329 1074.84 757.777 1074.84 Q757.664 1074.84 753.509 1074.96 Z" fill="#000000" fill-rule="evenodd" fill-opacity="1" /><path clip-path="url(#clip571)" d="M19.6117 534.589 L18.4086 534.589 Q18.5214 532.163 18.5214 529.587 Q18.5214 525.282 18.4086 523.89 L19.6117 523.89 Q19.6117 525.319 19.7996 525.959 Q19.9876 526.579 20.5703 526.579 Q20.8335 526.579 21.2283 526.316 L32.5821 519.34 L22.2621 513.004 Q21.6794 512.628 21.1155 512.609 Q20.4576 512.609 20.044 513.154 Q19.6117 513.681 19.6117 514.809 L18.4086 514.809 Q18.5214 511.801 18.5214 510.372 Q18.5214 508.379 18.4086 506.611 L19.6117 506.611 Q19.6117 510.033 22.1117 511.537 L34.1987 518.964 L41.6238 518.964 Q42.808 518.964 43.1652 518.494 Q43.5223 518.005 43.5223 515.881 L43.5223 514.997 L44.7066 514.997 Q44.5938 516.388 44.5938 520.619 Q44.5938 524.849 44.7066 526.241 L43.5223 526.241 L43.5223 525.319 Q43.5223 523.232 43.184 522.762 Q42.8268 522.273 41.699 522.273 L34.1987 522.273 L21.0215 530.358 Q20.4388 530.697 20.1944 530.979 Q19.95 531.242 19.7808 531.938 Q19.6117 532.633 19.6117 533.912 L19.6117 534.589 Z" fill="#000000" fill-rule="evenodd" fill-opacity="1" /><defs>
  <clipPath id="clip572">
    <rect x="1027" y="126" width="281" height="111"/>
  </clipPath>
</defs>
<path clip-path="url(#clip572)" d="
M1027.89 235.64 L1307.6 235.64 L1307.6 126.04 L1027.89 126.04  Z
  " fill="#ffffff" fill-rule="evenodd" fill-opacity="1"/>
<polyline clip-path="url(#clip572)" style="stroke:#000000; stroke-linecap:butt; stroke-linejoin:round; stroke-width:2.192; stroke-opacity:1; fill:none" points="
  1027.89,235.64 1307.6,235.64 1307.6,126.04 1027.89,126.04 1027.89,235.64 
  "/>
<polyline clip-path="url(#clip572)" style="stroke:#00528a; stroke-linecap:butt; stroke-linejoin:round; stroke-width:2.192; stroke-opacity:1; fill:none" points="
  1042.5,147.96 1130.16,147.96 
  "/>
<path clip-path="url(#clip571)" d="M1144.77 160.604 L1144.77 155.528 Q1144.77 155.095 1144.79 154.945 Q1144.81 154.795 1144.92 154.682 Q1145.04 154.569 1145.26 154.569 Q1145.52 154.569 1145.62 154.682 Q1145.73 154.795 1145.81 155.227 Q1146.39 157.878 1147.63 159.288 Q1148.89 160.68 1151.16 160.68 Q1153.33 160.68 1154.42 159.721 Q1155.51 158.762 1155.51 157.182 Q1155.51 154.362 1151.5 153.648 Q1149.19 153.178 1148.23 152.877 Q1147.27 152.557 1146.43 151.861 Q1144.77 150.508 1144.77 148.59 Q1144.77 146.672 1146.22 145.262 Q1147.69 143.852 1150.92 143.852 Q1153.08 143.852 1154.55 144.942 Q1154.98 144.604 1155.21 144.322 Q1155.71 143.852 1155.98 143.852 Q1156.28 143.852 1156.33 144.059 Q1156.39 144.247 1156.39 144.792 L1156.39 148.665 Q1156.39 149.098 1156.37 149.248 Q1156.35 149.398 1156.24 149.511 Q1156.13 149.605 1155.88 149.605 Q1155.45 149.605 1155.43 149.248 Q1155.13 144.585 1150.92 144.585 Q1148.64 144.585 1147.63 145.469 Q1146.61 146.334 1146.61 147.518 Q1146.61 148.176 1146.92 148.684 Q1147.23 149.173 1147.63 149.474 Q1148.04 149.756 1148.8 150.038 Q1149.55 150.301 1150 150.395 Q1150.47 150.489 1151.35 150.677 Q1154.43 151.26 1155.73 152.519 Q1157.35 154.136 1157.35 156.186 Q1157.35 158.461 1155.81 160.003 Q1154.27 161.544 1151.16 161.544 Q1148.66 161.544 1146.92 159.871 Q1146.69 160.097 1146.52 160.304 Q1146.35 160.492 1146.28 160.567 Q1146.22 160.642 1146.2 160.698 Q1146.18 160.736 1146.14 160.774 Q1145.37 161.544 1145.19 161.544 Q1144.89 161.544 1144.83 161.338 Q1144.77 161.15 1144.77 160.604 Z" fill="#000000" fill-rule="evenodd" fill-opacity="1" /><path clip-path="url(#clip571)" d="M1159.92 161.112 L1159.92 159.927 Q1161.97 159.927 1162.44 159.683 Q1162.91 159.42 1162.91 158.179 L1162.91 147.819 Q1162.91 146.39 1162.42 146.052 Q1161.95 145.713 1160.07 145.713 L1160.07 144.51 L1165.45 144.096 L1165.45 158.216 Q1165.45 159.363 1165.86 159.645 Q1166.28 159.927 1168.16 159.927 L1168.16 161.112 Q1164.23 160.999 1164.15 160.999 Q1163.63 160.999 1159.92 161.112 M1161.54 137.384 Q1161.54 136.613 1162.12 135.993 Q1162.72 135.353 1163.57 135.353 Q1164.42 135.353 1165.02 135.936 Q1165.62 136.5 1165.62 137.403 Q1165.62 138.286 1165.02 138.869 Q1164.42 139.433 1163.57 139.433 Q1162.69 139.433 1162.1 138.813 Q1161.54 138.192 1161.54 137.384 Z" fill="#000000" fill-rule="evenodd" fill-opacity="1" /><path clip-path="url(#clip571)" d="M1170.37 164.158 Q1170.37 162.917 1171.31 161.845 Q1172.27 160.774 1173.93 160.304 Q1172.24 159.232 1172.24 156.882 Q1172.24 155.077 1173.42 153.685 Q1171.62 152.181 1171.62 149.718 Q1171.62 147.443 1173.42 145.77 Q1175.22 144.096 1177.86 144.096 Q1180.17 144.096 1181.94 145.488 Q1183.78 143.683 1186.01 143.664 Q1187.01 143.664 1187.48 144.284 Q1187.97 144.905 1187.97 145.563 Q1187.97 146.146 1187.59 146.428 Q1187.24 146.71 1186.86 146.71 Q1186.39 146.71 1186.05 146.409 Q1185.73 146.089 1185.73 145.6 Q1185.73 144.792 1186.35 144.547 Q1186.24 144.51 1185.98 144.51 Q1184.1 144.51 1182.5 146.014 Q1184.08 147.481 1184.08 149.756 Q1184.08 152.031 1182.27 153.704 Q1180.47 155.377 1177.86 155.377 Q1175.69 155.377 1174.04 154.174 Q1173.38 154.945 1173.38 155.998 Q1173.38 156.957 1173.97 157.709 Q1174.55 158.461 1175.43 158.574 Q1175.69 158.611 1178.31 158.611 Q1179.85 158.611 1180.69 158.649 Q1181.54 158.687 1182.74 158.95 Q1183.97 159.194 1184.92 159.683 Q1187.42 161.074 1187.44 164.083 Q1187.44 166.283 1184.91 167.655 Q1182.39 169.046 1178.89 169.046 Q1175.36 169.046 1172.86 167.636 Q1170.37 166.245 1170.37 164.158 M1172.39 164.158 Q1172.39 165.737 1174.25 166.941 Q1176.11 168.163 1178.93 168.163 Q1181.69 168.163 1183.55 166.959 Q1185.43 165.775 1185.43 164.158 Q1185.43 163.011 1184.77 162.278 Q1184.12 161.544 1182.76 161.244 Q1181.43 160.962 1180.49 160.905 Q1179.55 160.849 1177.82 160.849 L1175.54 160.849 Q1174.23 160.924 1173.31 161.883 Q1172.39 162.842 1172.39 164.158 M1174.49 149.756 Q1174.49 154.494 1177.86 154.494 Q1179.55 154.494 1180.58 152.952 Q1181.2 151.918 1181.2 149.718 Q1181.2 144.98 1177.86 144.98 Q1176.16 144.98 1175.11 146.522 Q1174.49 147.556 1174.49 149.756 Z" fill="#000000" fill-rule="evenodd" fill-opacity="1" /><path clip-path="url(#clip571)" d="M1189.79 161.112 L1189.79 159.927 Q1191.84 159.927 1192.31 159.683 Q1192.78 159.42 1192.78 158.179 L1192.78 147.857 Q1192.78 146.428 1192.27 146.07 Q1191.79 145.713 1189.79 145.713 L1189.79 144.51 L1195.21 144.096 L1195.21 148.139 Q1197.01 144.096 1200.9 144.096 Q1203.8 144.096 1204.94 145.525 Q1205.79 146.484 1205.96 147.556 Q1206.15 148.627 1206.15 151.41 L1206.15 158.762 Q1206.18 159.57 1206.8 159.758 Q1207.43 159.927 1209.15 159.927 L1209.15 161.112 Q1205.23 160.999 1204.83 160.999 Q1204.53 160.999 1200.49 161.112 L1200.49 159.927 Q1202.54 159.927 1203.01 159.683 Q1203.5 159.42 1203.5 158.179 L1203.5 149.21 Q1203.5 147.255 1202.89 146.108 Q1202.29 144.942 1200.64 144.942 Q1198.65 144.942 1197.05 146.616 Q1195.45 148.289 1195.45 151.109 L1195.45 158.179 Q1195.45 159.42 1195.92 159.683 Q1196.41 159.927 1198.44 159.927 L1198.44 161.112 Q1194.51 160.999 1194.14 160.999 Q1193.83 160.999 1189.79 161.112 Z" fill="#000000" fill-rule="evenodd" fill-opacity="1" /><path clip-path="url(#clip571)" d="M1211.52 157.446 Q1211.52 154.174 1215.38 152.444 Q1217.69 151.335 1222.46 151.053 L1222.46 149.643 Q1222.46 147.255 1221.2 145.995 Q1219.96 144.717 1218.38 144.717 Q1215.56 144.717 1214.21 146.484 Q1215.36 146.522 1215.77 147.105 Q1216.18 147.669 1216.18 148.251 Q1216.18 149.022 1215.7 149.53 Q1215.23 150.019 1214.42 150.019 Q1213.65 150.019 1213.14 149.549 Q1212.63 149.06 1212.63 148.214 Q1212.63 146.334 1214.32 145.093 Q1216.03 143.852 1218.46 143.852 Q1221.62 143.852 1223.72 145.976 Q1224.38 146.634 1224.7 147.481 Q1225.04 148.327 1225.08 148.891 Q1225.11 149.436 1225.11 150.526 L1225.11 158.216 Q1225.11 158.442 1225.19 158.818 Q1225.26 159.194 1225.6 159.683 Q1225.96 160.153 1226.54 160.153 Q1227.93 160.153 1227.91 157.69 L1227.91 155.528 L1228.89 155.528 L1228.89 157.69 Q1228.89 159.739 1227.8 160.548 Q1226.73 161.338 1225.73 161.338 Q1224.46 161.338 1223.65 160.398 Q1222.84 159.457 1222.73 158.179 Q1222.14 159.645 1220.81 160.604 Q1219.49 161.544 1217.69 161.544 Q1216.3 161.544 1214.98 161.187 Q1213.68 160.849 1212.59 159.89 Q1211.52 158.912 1211.52 157.446 M1214.49 157.408 Q1214.49 158.837 1215.51 159.758 Q1216.52 160.68 1217.95 160.68 Q1219.57 160.68 1221.02 159.439 Q1222.46 158.179 1222.46 155.716 L1222.46 151.861 Q1218.2 152.012 1216.34 153.723 Q1214.49 155.415 1214.49 157.408 Z" fill="#000000" fill-rule="evenodd" fill-opacity="1" /><path clip-path="url(#clip571)" d="M1230.43 161.112 L1230.43 159.927 Q1232.48 159.927 1232.95 159.683 Q1233.42 159.42 1233.42 158.179 L1233.42 138.155 Q1233.42 136.726 1232.91 136.369 Q1232.43 136.011 1230.43 136.011 L1230.43 134.808 L1235.96 134.394 L1235.96 158.179 Q1235.96 159.42 1236.45 159.683 Q1236.94 159.927 1238.97 159.927 L1238.97 161.112 Q1238.5 161.112 1237.52 161.074 Q1236.54 161.037 1235.83 161.018 Q1235.11 160.999 1234.7 160.999 Q1234.25 160.999 1230.43 161.112 Z" fill="#000000" fill-rule="evenodd" fill-opacity="1" /><polyline clip-path="url(#clip572)" style="stroke:#000000; stroke-linecap:butt; stroke-linejoin:round; stroke-width:2.192; stroke-opacity:1; fill:none" stroke-dasharray="9, 5" points="
  1042.5,191.8 1130.16,191.8 
  "/>
<path clip-path="url(#clip571)" d="M1144.77 196.472 Q1144.77 192.844 1147.1 190.268 Q1149.43 187.692 1152.78 187.692 Q1156.16 187.692 1157.91 189.892 Q1159.68 192.091 1159.68 195.25 Q1159.68 195.833 1159.53 195.946 Q1159.38 196.059 1158.72 196.059 L1147.97 196.059 Q1147.97 199.988 1149.13 201.831 Q1150.75 204.407 1153.48 204.407 Q1153.85 204.407 1154.3 204.332 Q1154.75 204.256 1155.68 203.937 Q1156.6 203.598 1157.4 202.715 Q1158.21 201.831 1158.68 200.44 Q1158.8 199.894 1159.17 199.913 Q1159.68 199.913 1159.68 200.364 Q1159.68 200.703 1159.3 201.474 Q1158.95 202.226 1158.25 203.128 Q1157.55 204.031 1156.2 204.708 Q1154.87 205.384 1153.25 205.384 Q1149.87 205.384 1147.31 202.827 Q1144.77 200.251 1144.77 196.472 M1148.01 195.25 L1157.14 195.25 Q1157.14 194.442 1156.99 193.539 Q1156.86 192.637 1156.45 191.396 Q1156.05 190.136 1155.11 189.346 Q1154.17 188.557 1152.78 188.557 Q1152.16 188.557 1151.48 188.82 Q1150.83 189.083 1150.02 189.722 Q1149.21 190.362 1148.64 191.809 Q1148.08 193.257 1148.01 195.25 Z" fill="#000000" fill-rule="evenodd" fill-opacity="1" /><path clip-path="url(#clip571)" d="M1162.03 204.952 L1162.03 203.767 Q1164.08 203.767 1164.55 203.523 Q1165.02 203.26 1165.02 202.019 L1165.02 191.697 Q1165.02 190.268 1164.51 189.91 Q1164.02 189.553 1162.03 189.553 L1162.03 188.35 L1167.44 187.936 L1167.44 191.979 Q1169.25 187.936 1173.14 187.936 Q1176.03 187.936 1177.18 189.365 Q1178.03 190.324 1178.19 191.396 Q1178.38 192.467 1178.38 195.25 L1178.38 202.602 Q1178.42 203.41 1179.04 203.598 Q1179.66 203.767 1181.39 203.767 L1181.39 204.952 Q1177.46 204.839 1177.07 204.839 Q1176.77 204.839 1172.72 204.952 L1172.72 203.767 Q1174.77 203.767 1175.24 203.523 Q1175.73 203.26 1175.73 202.019 L1175.73 193.05 Q1175.73 191.095 1175.13 189.948 Q1174.53 188.782 1172.87 188.782 Q1170.88 188.782 1169.28 190.456 Q1167.69 192.129 1167.69 194.949 L1167.69 202.019 Q1167.69 203.26 1168.16 203.523 Q1168.65 203.767 1170.68 203.767 L1170.68 204.952 Q1166.75 204.839 1166.37 204.839 Q1166.07 204.839 1162.03 204.952 Z" fill="#000000" fill-rule="evenodd" fill-opacity="1" /><path clip-path="url(#clip571)" d="M1181.8 189.553 L1181.8 188.35 Q1183.53 188.463 1185.54 188.463 Q1186.28 188.463 1189.74 188.35 L1189.74 189.553 Q1187.54 189.553 1187.54 190.55 Q1187.54 190.7 1187.76 191.208 L1192.09 201.944 L1196.01 192.129 Q1196.24 191.471 1196.24 191.208 Q1196.24 190.55 1195.79 190.08 Q1195.36 189.591 1194.4 189.553 L1194.4 188.35 Q1196.35 188.463 1197.74 188.463 Q1199.32 188.463 1200.62 188.35 L1200.62 189.553 Q1199.47 189.553 1198.67 190.08 Q1197.86 190.587 1197.59 191.039 Q1197.35 191.471 1197.09 192.129 L1192.05 204.651 Q1191.75 205.384 1191.24 205.384 Q1190.9 205.384 1190.75 205.234 Q1190.62 205.102 1190.43 204.651 L1184.89 190.982 Q1184.51 190.023 1184.02 189.798 Q1183.53 189.553 1181.8 189.553 Z" fill="#000000" fill-rule="evenodd" fill-opacity="1" /><path clip-path="url(#clip571)" d="M1201.35 196.472 Q1201.35 192.844 1203.68 190.268 Q1206.02 187.692 1209.36 187.692 Q1212.74 187.692 1214.49 189.892 Q1216.26 192.091 1216.26 195.25 Q1216.26 195.833 1216.11 195.946 Q1215.96 196.059 1215.3 196.059 L1204.55 196.059 Q1204.55 199.988 1205.71 201.831 Q1207.33 204.407 1210.06 204.407 Q1210.43 204.407 1210.88 204.332 Q1211.34 204.256 1212.26 203.937 Q1213.18 203.598 1213.99 202.715 Q1214.79 201.831 1215.26 200.44 Q1215.38 199.894 1215.75 199.913 Q1216.26 199.913 1216.26 200.364 Q1216.26 200.703 1215.88 201.474 Q1215.53 202.226 1214.83 203.128 Q1214.14 204.031 1212.78 204.708 Q1211.45 205.384 1209.83 205.384 Q1206.45 205.384 1203.89 202.827 Q1201.35 200.251 1201.35 196.472 M1204.59 195.25 L1213.72 195.25 Q1213.72 194.442 1213.57 193.539 Q1213.44 192.637 1213.03 191.396 Q1212.63 190.136 1211.69 189.346 Q1210.75 188.557 1209.36 188.557 Q1208.74 188.557 1208.06 188.82 Q1207.41 189.083 1206.6 189.722 Q1205.79 190.362 1205.23 191.809 Q1204.66 193.257 1204.59 195.25 Z" fill="#000000" fill-rule="evenodd" fill-opacity="1" /><path clip-path="url(#clip571)" d="M1218.65 204.952 L1218.65 203.767 Q1220.7 203.767 1221.17 203.523 Q1221.64 203.26 1221.64 202.019 L1221.64 181.995 Q1221.64 180.566 1221.13 180.209 Q1220.64 179.851 1218.65 179.851 L1218.65 178.648 L1224.17 178.234 L1224.17 202.019 Q1224.17 203.26 1224.66 203.523 Q1225.15 203.767 1227.18 203.767 L1227.18 204.952 Q1226.71 204.952 1225.73 204.914 Q1224.76 204.877 1224.04 204.858 Q1223.33 204.839 1222.91 204.839 Q1222.46 204.839 1218.65 204.952 Z" fill="#000000" fill-rule="evenodd" fill-opacity="1" /><path clip-path="url(#clip571)" d="M1231.64 202.884 Q1229.1 200.364 1229.1 196.717 Q1229.1 193.05 1231.58 190.38 Q1234.08 187.692 1237.65 187.692 Q1241.15 187.692 1243.65 190.362 Q1246.17 193.013 1246.17 196.717 Q1246.17 200.346 1243.63 202.865 Q1241.11 205.384 1237.61 205.384 Q1234.19 205.384 1231.64 202.884 M1232.29 196.397 Q1232.29 200.139 1233.27 201.831 Q1234.78 204.407 1237.65 204.407 Q1239.08 204.407 1240.26 203.636 Q1241.47 202.865 1242.13 201.568 Q1242.97 199.875 1242.97 196.397 Q1242.97 192.693 1241.96 191.057 Q1240.45 188.557 1237.61 188.557 Q1236.37 188.557 1235.15 189.215 Q1233.95 189.854 1233.22 191.133 Q1232.29 192.825 1232.29 196.397 Z" fill="#000000" fill-rule="evenodd" fill-opacity="1" /><path clip-path="url(#clip571)" d="M1248.35 211.232 Q1250.4 211.232 1250.87 210.969 Q1251.36 210.724 1251.36 209.502 L1251.36 191.471 Q1251.36 190.192 1250.87 189.873 Q1250.4 189.553 1248.35 189.553 L1248.35 188.35 L1253.89 187.936 L1253.89 190.474 Q1256.21 187.936 1259.29 187.936 Q1262.56 187.936 1264.95 190.474 Q1267.33 193.013 1267.33 196.642 Q1267.33 200.308 1264.8 202.846 Q1262.26 205.384 1258.74 205.384 Q1256.83 205.384 1255.53 204.407 Q1254.25 203.41 1254.01 202.677 L1254.01 203.034 L1254.01 209.502 Q1254.01 210.743 1254.49 210.987 Q1254.98 211.232 1257.01 211.232 L1257.01 212.416 Q1252.97 212.304 1252.67 212.304 Q1252.3 212.304 1248.35 212.416 L1248.35 211.232 M1254.01 200.571 Q1254.01 201.154 1254.08 201.361 Q1254.18 201.568 1254.55 202.188 Q1256.07 204.52 1258.55 204.52 Q1258.57 204.52 1258.59 204.52 Q1260.79 204.52 1262.46 202.282 Q1264.14 200.026 1264.14 196.642 Q1264.14 193.408 1262.62 191.151 Q1261.09 188.895 1258.99 188.895 Q1257.48 188.895 1256.17 189.704 Q1254.85 190.512 1254.01 191.979 L1254.01 200.571 Z" fill="#000000" fill-rule="evenodd" fill-opacity="1" /><path clip-path="url(#clip571)" d="M1270.77 196.472 Q1270.77 192.844 1273.1 190.268 Q1275.44 187.692 1278.78 187.692 Q1282.16 187.692 1283.91 189.892 Q1285.68 192.091 1285.68 195.25 Q1285.68 195.833 1285.53 195.946 Q1285.38 196.059 1284.72 196.059 L1273.97 196.059 Q1273.97 199.988 1275.13 201.831 Q1276.75 204.407 1279.48 204.407 Q1279.85 204.407 1280.3 204.332 Q1280.75 204.256 1281.68 203.937 Q1282.6 203.598 1283.41 202.715 Q1284.21 201.831 1284.68 200.44 Q1284.8 199.894 1285.17 199.913 Q1285.68 199.913 1285.68 200.364 Q1285.68 200.703 1285.3 201.474 Q1284.95 202.226 1284.25 203.128 Q1283.56 204.031 1282.2 204.708 Q1280.87 205.384 1279.25 205.384 Q1275.87 205.384 1273.31 202.827 Q1270.77 200.251 1270.77 196.472 M1274.01 195.25 L1283.14 195.25 Q1283.14 194.442 1282.99 193.539 Q1282.86 192.637 1282.45 191.396 Q1282.05 190.136 1281.11 189.346 Q1280.17 188.557 1278.78 188.557 Q1278.16 188.557 1277.48 188.82 Q1276.83 189.083 1276.02 189.722 Q1275.21 190.362 1274.65 191.809 Q1274.08 193.257 1274.01 195.25 Z" fill="#000000" fill-rule="evenodd" fill-opacity="1" /></svg>
